<?xml version="1.0" standalone="no" ?>
<!DOCTYPE svg PUBLIC "-//W3C//DTD SVG 1.0//EN" "http://www.w3.org/TR/2001/REC-SVG-20010904/DTD/svg10.dtd">
<svg style="vertical-align: -0.043ex" xmlns="http://www.w3.org/2000/svg" width="1.76ex" height="1.629ex" role="img" focusable="false" viewBox="0 -701 778 720">
<style>
  * {
    fill: black;
    background-color: transparent;
  }
</style><g stroke="currentColor" fill="currentColor" stroke-width="0" transform="scale(1,-1)"><g data-mml-node="math"><g data-mml-node="TeXAtom" data-mjx-texclass="ORD"><g data-mml-node="mi"><path data-c="1D546" d="M131 601Q180 652 249 676T387 701Q485 701 562 661Q628 629 671 575T731 448Q742 410 742 341T731 234Q707 140 646 81Q549 -19 389 -19Q228 -19 131 81Q57 155 37 274Q34 292 34 341Q34 392 37 410Q58 528 131 601ZM568 341Q568 613 437 659Q406 664 395 665Q329 665 286 625Q232 571 213 439Q210 408 210 341Q210 275 213 245Q232 111 286 57Q309 37 342 23Q357 19 389 19Q420 19 437 23Q469 38 491 57Q568 132 568 341ZM174 341Q174 403 177 441T197 535T249 639Q246 639 224 627T193 608Q189 606 183 601T169 589T155 577Q69 488 69 344Q69 133 231 52Q244 45 246 45Q248 45 246 48Q231 69 222 85T200 141T177 239Q174 269 174 341ZM708 341Q708 415 684 475T635 563T582 610Q578 612 565 619T546 630Q533 637 531 637Q530 637 530 636V635L531 634Q562 591 577 543Q602 471 602 341V316Q602 264 599 230T580 144T531 48L530 47V46Q530 45 531 45Q533 45 547 52T583 75T622 105Q708 195 708 341Z"></path></g></g></g></g></svg>